# xmcd
#
# Track frame offsets:
#	150
#	10677
#	24219
#	38452
#	55447
#	66947
#	86140
#	99992
#	114132
#	129077
#	140567
#	160782
#
# Disc length: 2356 seconds
#
# Revision: 1
# Processed by: cddbd v1.4PL0 Copyright (c) Steve Scherf et al.
# Submitted via: audiograbber 1.80.04
#
DISCID=8809320c
DTITLE=Anna Lemgruber - Anna Lemgruber - O Negócio é Amar
DYEAR=1998
DGENRE=Country
TTITLE0=Doce de Côco
TTITLE1=Samba e Amor
TTITLE2=O Négocio é Amar
TTITLE3=Senhora Tentação
TTITLE4=Caatinga Vista da Lua
TTITLE5=Sodade
TTITLE6=Pedacinhos do céu
TTITLE7=Pano Legal - Café Soçaite
TTITLE8=Angélica
TTITLE9=Amanhecer
TTITLE10=Tolice Bendita
TTITLE11=Eu Sei que Vou Te Amar
EXTD=Grupo Pijama de Seda\nMarcos Souza, paulo heleno, David Chew e Dom Chacal
EXTD=\nMúsicos Convidados: Mauro Senise, Zé Nogueira, Zeca Assumpção, Pascoal M
EXTD=eirelles, carlos Malta, Roberto Marx e "Coroné do trio Nordestino" - Baian
EXTD=o\n
EXTT0=
EXTT1=
EXTT2=
EXTT3=
EXTT4=
EXTT5=
EXTT6=
EXTT7=
EXTT8=
EXTT9=
EXTT10=
EXTT11=
PLAYORDER=
